# xmcd
#
# Track frame offsets: 
#        150
#        19700
#        34339
#        48812
#        65008
#        75919
#        86379
#        97974
#        105122
#        118332
#        141043
#        163122
#        176594
#        192373
#        202574
#        209794
#        227905
#        238801
#        248399
#        263886
#        282362
#        296295
#
# Disc length: 4190 seconds
#
# Revision: 1
# Processed by: cddbd v1.5.2PL0 Copyright (c) Steve Scherf et al.
# Submitted via: ExactAudioCopyFreeDBPlugin 1.0
#
DISCID=28105c16
DTITLE=Billy Joe Shaver - Live At Billy Bob's Texas {With DVD}
DYEAR=2012
DGENRE=Bluegrass
TTITLE0=Heart Of Texas
TTITLE1=Georgia On A FastTrain
TTITLE2=Honky Tonk Heroes
TTITLE3=That's What She Said Last Night
TTITLE4=Black Rose
TTITLE5=Wacko From Waco
TTITLE6=Old Chunk Of Coal
TTITLE7=Star In My Heart
TTITLE8=Live Forever
TTITLE9=Hottest Thing In Town
TTITLE10=Thunderbird
TTITLE11=Good Old USA
TTITLE12=Ride Me Down Easy
TTITLE13=Love Is So Sweet
TTITLE14=I Couldn't Be Me Without You
TTITLE15=The Git Go
TTITLE16=Old Five And Dimers
TTITLE17=You Asked Me To
TTITLE18=Try And Try Again
TTITLE19=You Can't Beat Jesus Christ
TTITLE20=Wacko From Waco (bonus track)
TTITLE21=The Git Go (bonus track)
EXTD=YEAR: 2012
EXTT0=
EXTT1=
EXTT2=
EXTT3=
EXTT4=
EXTT5=
EXTT6=
EXTT7=
EXTT8=
EXTT9=
EXTT10=
EXTT11=
EXTT12=
EXTT13=
EXTT14=
EXTT15=
EXTT16=
EXTT17=
EXTT18=
EXTT19=
EXTT20=
EXTT21=
PLAYORDER=
